<svg width="22" height="19" viewBox="0 0 22 19" fill="none" xmlns="http://www.w3.org/2000/svg">
    <path d="M15.6875 0.5C14.6022 0.5 13.6072 0.840863 12.7302 1.51314C12.526 1.66965 12.3384 1.83656 12.1666 2.00815C11.5612 2.61297 10.4388 2.61297 9.83336 2.00814C9.66159 1.83656 9.47399 1.66965 9.2698 1.51314C8.39277 0.840863 7.39777 0.5 6.3125 0.5C3.28391 0.5 1 2.9553 1 6.21127C1 9.72885 3.84934 12.1355 8.16285 15.7789C8.89535 16.3976 9.72562 17.0989 10.5886 17.8469C10.7023 17.9456 10.8484 18 11 18C11.1516 18 11.2977 17.9456 11.4114 17.847C12.2745 17.0989 13.1047 16.3976 13.8376 15.7785C18.1507 12.1355 21 9.72885 21 6.21127C21 2.9553 18.7161 0.5 15.6875 0.5Z" stroke="#9E9E9E"/>
</svg>
