<svg width="62" height="55" viewBox="0 0 62 55" fill="none" xmlns="http://www.w3.org/2000/svg">
    <path d="M12.6447 1.74855C9.95262 2.86127 7.74999 4.45086 5.87368 6.51733C3.99736 8.50432 2.52894 10.8887 1.55 13.591C0.489473 16.2933 0 19.2341 0 22.4132C0 25.4335 0.489473 28.2153 1.38684 30.7586C2.36579 33.302 3.67105 35.5274 5.3842 37.3554C7.09736 39.1834 9.21841 40.6141 11.6658 41.6473C14.1131 42.6805 16.8868 43.2369 19.9052 43.2369C24.1473 43.2369 27.9 42.4421 31.2447 40.932V37.117C28.1447 38.786 24.4737 39.6603 20.3947 39.6603C17.7026 39.6603 15.3368 39.1834 13.2974 38.2297C11.2579 37.2759 9.54473 36.0043 8.23946 34.4147C6.85262 32.8251 5.87368 30.997 5.13947 28.8511C4.40526 26.7051 4.07894 24.4797 4.07894 22.0159C4.07894 19.3135 4.48684 16.8497 5.22105 14.6242C6.03684 12.3988 7.09736 10.4118 8.56578 8.74276C10.0342 7.07368 11.8289 5.80201 14.0316 4.84826C16.2342 3.8945 18.6816 3.41762 21.3737 3.41762C24.8816 3.41762 28.1447 4.13294 31.1631 5.64305V1.66907C28.471 0.556357 25.2079 0 21.5368 0C18.2737 0 15.2552 0.556357 12.6447 1.74855Z" fill="black"/>
    <path d="M54.7395 42.0448C54.25 41.1706 53.8421 40.3758 53.3526 39.7399C52.9447 39.0246 52.4553 38.4682 52.0474 37.9119C51.6395 37.3555 51.15 36.9581 50.6605 36.5607C50.1711 36.1633 49.6816 35.9249 49.1105 35.6865V35.607C50.6605 35.2891 51.9658 34.8122 53.1895 34.0969C54.4132 33.461 55.3921 32.5868 56.2895 31.633C57.1053 30.6792 57.7579 29.5665 58.2474 28.2949C58.7369 27.0232 58.9 25.672 58.9 24.2414C58.9 22.4134 58.5737 20.8238 57.8395 19.4726C57.1053 18.1215 56.2079 16.9293 54.9842 16.055C53.8421 15.1807 52.4553 14.4654 50.9869 13.9885C49.5184 13.5117 47.8869 13.2732 46.3369 13.2732H33.9369V55H37.9342V36.7992H42.6658C43.5632 36.7992 44.379 36.8787 45.1132 37.1171C45.8474 37.3555 46.5 37.6735 47.1526 38.1503C47.8053 38.6272 48.3763 39.263 49.029 40.0578C49.6 40.8526 50.2526 41.8064 50.9053 42.9986L57.35 55H62L54.7395 42.0448ZM45.0316 33.2226H37.9342V16.7703H45.3579C48.3763 16.7703 50.6605 17.4856 52.2921 18.8368C53.9237 20.1879 54.6579 22.0954 54.6579 24.5593C54.6579 25.9105 54.4132 27.1027 53.9237 28.1359C53.4342 29.1691 52.7816 30.1229 51.9658 30.8382C51.15 31.633 50.0895 32.1894 48.8658 32.5868C47.6421 32.9842 46.5 33.2226 45.0316 33.2226Z" fill="black"/>
</svg>
