<svg width="144" height="34" viewBox="0 0 144 34" fill="none" xmlns="http://www.w3.org/2000/svg">
    <path d="M17.0906 24.5302L21.1323 25.1007C20.6704 27.8389 19.5156 30.0067 17.7835 31.604C15.9358 33.2013 13.7418 33.8859 11.0858 33.8859C7.73697 33.8859 5.08099 32.8591 3.00241 30.6913C0.923818 28.5235 0 25.443 0 21.4497C0 18.8255 0.461909 16.5436 1.27025 14.604C2.19407 12.6644 3.46431 11.1812 5.31195 10.2685C7.04411 9.24161 9.00722 8.78524 11.0858 8.78524C13.7418 8.78524 15.9358 9.4698 17.5525 10.8389C19.2847 12.2081 20.324 14.0336 20.7859 16.4295L16.7442 17C16.3978 15.4027 15.7049 14.1477 14.6656 13.349C13.6263 12.5503 12.4715 12.094 11.0858 12.094C9.00722 12.094 7.27506 12.8926 6.00481 14.2617C4.73456 15.745 4.0417 18.0268 4.0417 21.3356C4.0417 24.5302 4.61909 26.9262 5.88933 28.4094C7.15958 29.8926 8.77627 30.5772 10.8549 30.5772C12.4715 30.5772 13.8573 30.1208 14.8966 29.094C16.0513 28.0671 16.7442 26.5839 17.0906 24.5302ZM23.0954 21.2215C23.0954 16.7718 24.3657 13.4631 26.9062 11.2953C28.9848 9.4698 31.6407 8.55705 34.6431 8.55705C37.992 8.55705 40.7634 9.69798 42.842 11.8658C44.9206 14.0336 45.9599 17 45.9599 20.8792C45.9599 23.9597 45.498 26.3557 44.5742 28.1812C43.6504 30.0067 42.2646 31.2617 40.417 32.2886C38.5694 33.3154 36.6063 33.7718 34.5277 33.7718C31.1788 33.7718 28.2919 32.745 26.2133 30.5772C24.1347 28.4094 23.0954 25.3289 23.0954 21.2215ZM27.3681 21.2215C27.3681 24.302 28.0609 26.5839 29.4467 28.1812C30.8324 29.6644 32.5646 30.4631 34.6431 30.4631C36.7217 30.4631 38.4539 29.6644 39.8396 28.1812C41.2253 26.698 41.9182 24.302 41.9182 21.1074C41.9182 18.1409 41.2253 15.8591 39.8396 14.3758C38.4539 12.8926 36.7217 12.094 34.6431 12.094C32.5646 12.094 30.8324 12.8926 29.4467 14.3758C28.0609 15.8591 27.3681 18.1409 27.3681 21.2215ZM50.8099 33.3154V9.24161H54.5052V12.8926C55.429 11.1812 56.3529 10.0403 57.1612 9.58389C57.9695 9.01342 58.8933 8.78524 59.8172 8.78524C61.2029 8.78524 62.7041 9.24161 64.0898 10.0403L62.5886 13.8054C61.5493 13.2349 60.51 13.0067 59.5862 13.0067C58.6624 13.0067 57.8541 13.2349 57.1612 13.8054C56.4683 14.3758 56.0064 15.0604 55.66 16.0872C55.1981 17.5705 54.9671 19.1678 54.9671 20.8792V33.5436H50.8099V33.3154ZM83.259 25.557L87.5317 26.1275C86.8388 28.6376 85.6841 30.4631 83.8364 31.8322C81.9888 33.2013 79.6792 33.8859 76.9078 33.8859C73.328 33.8859 70.5565 32.8591 68.4779 30.6913C66.3994 28.5235 65.3601 25.443 65.3601 21.5638C65.3601 17.5705 66.3994 14.3758 68.4779 12.2081C70.5565 9.92618 73.328 8.89933 76.6768 8.89933C79.9102 8.89933 82.5662 10.0403 84.6448 12.2081C86.7233 14.3758 87.7626 17.4564 87.7626 21.4497C87.7626 21.6779 87.7626 22.0201 87.7626 22.5906H69.4018C69.5172 25.2148 70.3256 27.2685 71.7113 28.6376C73.097 30.0067 74.7137 30.6913 76.7923 30.6913C78.2935 30.6913 79.5637 30.349 80.7185 29.5503C81.6423 28.5235 82.5662 27.2685 83.259 25.557ZM69.6327 18.9396H83.259C83.0281 16.8859 82.5662 15.4027 81.6423 14.3758C80.3721 12.7785 78.6399 11.9799 76.5613 11.9799C74.7137 11.9799 73.097 12.5503 71.8268 13.8054C70.4411 15.1745 69.7482 16.8859 69.6327 18.9396ZM91.1115 26.1275L95.1532 25.443C95.3841 27.0403 96.077 28.2953 97.1163 29.2081C98.1556 30.0067 99.6568 30.4631 101.504 30.4631C103.352 30.4631 104.853 30.1208 105.777 29.3221C106.701 28.5235 107.163 27.7248 107.163 26.5839C107.163 25.6711 106.816 24.9866 106.008 24.4161C105.431 24.0738 104.045 23.6175 101.735 23.047C98.733 22.2483 96.6544 21.6779 95.4996 21.1074C94.3448 20.5369 93.421 19.8523 92.8436 18.8255C92.2662 17.7987 91.9198 16.7718 91.9198 15.6309C91.9198 14.4899 92.1508 13.5772 92.6127 12.6644C93.1901 11.7517 93.7674 11.0671 94.6913 10.3825C95.3841 9.92617 96.1925 9.4698 97.3472 9.24161C98.502 8.89933 99.6568 8.78524 100.927 8.78524C102.775 8.78524 104.507 9.12751 106.008 9.58389C107.394 10.1544 108.549 10.8389 109.241 11.7517C109.934 12.6644 110.396 13.9195 110.627 15.5168L106.585 16.0872C106.47 14.8322 105.893 13.8054 104.969 13.1208C104.045 12.4362 102.89 12.094 101.273 12.094C99.4258 12.094 98.0401 12.4362 97.2318 13.0067C96.4234 13.5772 96.077 14.3758 96.077 15.1745C96.077 15.745 96.1925 16.2013 96.5389 16.5436C96.8853 17 97.4627 17.3423 98.1556 17.6846C98.502 17.7987 99.7723 18.1409 101.735 18.7114C104.622 19.5101 106.701 20.0805 107.856 20.651C109.01 21.1074 109.934 21.7919 110.627 22.8188C111.32 23.7315 111.666 24.8725 111.666 26.3557C111.666 27.7248 111.32 28.9799 110.512 30.2349C109.703 31.3758 108.549 32.2886 107.047 32.9732C105.546 33.6577 103.814 34 101.851 34C98.733 34 96.3079 33.3154 94.5758 32.0604C92.6127 30.5772 91.5734 28.6376 91.1115 26.1275ZM114.553 26.1275L118.595 25.443C118.826 27.0403 119.519 28.2953 120.558 29.2081C121.597 30.0067 123.099 30.4631 124.946 30.4631C126.794 30.4631 128.295 30.1208 129.219 29.3221C130.143 28.5235 130.605 27.7248 130.605 26.5839C130.605 25.6711 130.143 24.9866 129.334 24.4161C128.757 24.0738 127.371 23.6175 125.062 23.047C122.059 22.2483 119.981 21.6779 118.826 21.1074C117.671 20.5369 116.747 19.8523 116.17 18.8255C115.593 17.7987 115.246 16.7718 115.246 15.6309C115.246 14.4899 115.477 13.5772 115.939 12.6644C116.516 11.7517 117.094 11.0671 118.018 10.3825C118.595 9.92617 119.519 9.4698 120.674 9.24161C121.828 8.89933 122.983 8.78524 124.253 8.78524C126.101 8.78524 127.833 9.12751 129.334 9.58389C130.72 10.1544 131.875 10.8389 132.568 11.7517C133.261 12.6644 133.723 13.9195 133.953 15.5168L129.912 16.0872C129.681 14.8322 129.219 13.8054 128.295 13.1208C127.371 12.4362 126.217 12.094 124.6 12.094C122.752 12.094 121.366 12.4362 120.558 13.0067C119.75 13.5772 119.403 14.3758 119.403 15.1745C119.403 15.745 119.519 16.2013 119.865 16.5436C120.212 17 120.789 17.3423 121.482 17.6846C121.828 17.7987 123.099 18.1409 125.062 18.7114C127.949 19.5101 130.027 20.0805 131.182 20.651C132.337 21.1074 133.261 21.7919 133.953 22.8188C134.646 23.7315 134.993 24.8725 134.993 26.3557C134.993 27.7248 134.646 28.9799 133.838 30.2349C133.03 31.3758 131.875 32.2886 130.374 32.9732C128.872 33.6577 127.14 34 125.177 34C122.059 34 119.634 33.3154 117.902 32.0604C116.17 30.5772 115.015 28.6376 114.553 26.1275ZM139.843 4.67785V0H144V4.67785H139.843ZM139.843 33.3154V9.24161H144V33.3154H139.843Z" fill="black"/>
</svg>
