<svg width="57" height="76" viewBox="0 0 57 76" fill="none" xmlns="http://www.w3.org/2000/svg">
    <path d="M57 28.5C57 44.2401 34.2 76 28.5 76C22.8 76 0 44.2401 0 28.5C0 12.7599 12.7599 0 28.5 0C44.2401 0 57 12.7599 57 28.5Z" fill="#89604C"/>
    <circle cx="28.5002" cy="26.6" r="22.8" fill="white"/>
    <path d="M19.4998 14.0852C18.1798 14.585 17.0998 15.2988 16.1798 16.2269C15.2598 17.1192 14.5398 18.19 14.0598 19.4036C13.5398 20.6172 13.2998 21.9378 13.2998 23.3656C13.2998 24.7219 13.5398 25.9712 13.9798 27.1134C14.4598 28.2556 15.0998 29.255 15.9398 30.076C16.7798 30.8969 17.8198 31.5394 19.0198 32.0034C20.2198 32.4674 21.5798 32.7173 23.0598 32.7173C25.1398 32.7173 26.9798 32.3604 28.6198 31.6822V29.9689C27.0998 30.7184 25.2998 31.1111 23.2998 31.1111C21.9798 31.1111 20.8198 30.8969 19.8198 30.4686C18.8198 30.0403 17.9798 29.4692 17.3398 28.7553C16.6598 28.0414 16.1798 27.2205 15.8198 26.2568C15.4598 25.293 15.2998 24.2936 15.2998 23.1871C15.2998 21.9735 15.4998 20.867 15.8598 19.8676C16.2598 18.8682 16.7798 17.9758 17.4998 17.2263C18.2198 16.4767 19.0998 15.9056 20.1798 15.4773C21.2598 15.049 22.4598 14.8348 23.7798 14.8348C25.4998 14.8348 27.0998 15.1561 28.5798 15.8342V14.0496C27.2598 13.5498 25.6598 13.3 23.8598 13.3C22.2598 13.3 20.7798 13.5498 19.4998 14.0852Z" fill="#89604C"/>
    <path d="M40.1398 32.1819C39.8998 31.7893 39.6998 31.4324 39.4598 31.1468C39.2598 30.8256 39.0198 30.5757 38.8198 30.3259C38.6198 30.076 38.3798 29.8975 38.1398 29.7191C37.8998 29.5406 37.6598 29.4335 37.3798 29.3265V29.2908C38.1398 29.148 38.7798 28.9338 39.3798 28.6126C39.9798 28.327 40.4598 27.9344 40.8998 27.5061C41.2998 27.0778 41.6198 26.578 41.8598 26.007C42.0998 25.4359 42.1798 24.8291 42.1798 24.1866C42.1798 23.3656 42.0198 22.6518 41.6598 22.045C41.2998 21.4382 40.8598 20.9028 40.2598 20.5101C39.6998 20.1175 39.0198 19.7963 38.2998 19.5821C37.5798 19.3679 36.7798 19.2609 36.0198 19.2609H29.9398V38H31.8998V29.8262H34.2198C34.6598 29.8262 35.0598 29.8619 35.4198 29.9689C35.7798 30.076 36.0998 30.2188 36.4198 30.433C36.7398 30.6471 37.0198 30.9327 37.3398 31.2896C37.6198 31.6465 37.9398 32.0749 38.2598 32.6103L41.4198 38H43.6998L40.1398 32.1819ZM35.3798 28.22H31.8998V20.8314H35.5398C37.0198 20.8314 38.1398 21.1526 38.9398 21.7594C39.7398 22.3662 40.0998 23.2229 40.0998 24.3294C40.0998 24.9361 39.9798 25.4715 39.7398 25.9356C39.4998 26.3996 39.1798 26.8279 38.7798 27.1491C38.3798 27.5061 37.8598 27.7559 37.2598 27.9344C36.6598 28.1129 36.0998 28.22 35.3798 28.22Z" fill="#89604C"/>
</svg>
