<svg width="35" height="36" viewBox="0 0 35 36" fill="none" xmlns="http://www.w3.org/2000/svg">
    <path d="M0 17.2601C0 9.49372 0 5.61056 2.4127 3.19786C4.82541 0.785156 8.70857 0.785156 16.475 0.785156H17.8479C25.6143 0.785156 29.4974 0.785156 31.9102 3.19786C34.3229 5.61056 34.3229 9.49372 34.3229 17.2601V18.633C34.3229 26.3994 34.3229 30.2826 31.9102 32.6953C29.4974 35.108 25.6143 35.108 17.8479 35.108H16.475C8.70857 35.108 4.82541 35.108 2.4127 32.6953C0 30.2826 0 26.3994 0 18.633V17.2601Z" fill="black"/>
    <path d="M18.2626 25.512C10.4398 25.512 5.97791 20.149 5.79199 11.2251H9.71052C9.83923 17.775 12.728 20.5495 15.0162 21.1215V11.2251H18.706V16.8741C20.9656 16.6309 23.3393 14.0567 24.1402 11.2251H27.83C27.215 14.7146 24.6408 17.2888 22.8103 18.3471C24.6408 19.2052 27.5727 21.4505 28.6882 25.512H24.6265C23.7541 22.7948 21.5806 20.6925 18.706 20.4065V25.512H18.2626Z" fill="white"/>
</svg>
