<svg width="32" height="23" viewBox="0 0 32 23" fill="none" xmlns="http://www.w3.org/2000/svg">
    <path fill-rule="evenodd" clip-rule="evenodd" d="M30.2312 2.75237C29.3777 1.2343 28.4516 0.955065 26.5658 0.848879C24.682 0.721062 19.9449 0.667969 15.841 0.667969C11.7292 0.667969 6.99013 0.721062 5.10827 0.846913C3.22641 0.955065 2.29826 1.23233 1.43697 2.75237C0.557988 4.26847 0.105713 6.87987 0.105713 11.4773V11.4931C0.105713 16.0709 0.557988 18.7019 1.43697 20.2023C2.29826 21.7204 3.22444 21.9957 5.1063 22.1235C6.99013 22.2336 11.7292 22.2985 15.841 22.2985C19.9449 22.2985 24.6819 22.2336 26.5677 22.1255C28.4535 21.9977 29.3797 21.7224 30.2331 20.2043C31.12 18.7039 31.5683 16.0729 31.5683 11.495V11.4852V11.4793C31.5683 6.87987 31.12 4.26847 30.2312 2.75237Z" fill="black"/>
    <path fill-rule="evenodd" clip-rule="evenodd" d="M11.9042 17.3825V5.58398L21.7362 11.4832L11.9042 17.3825Z" fill="white"/>
</svg>
